<?xml version="1.0" encoding="utf-8"?>
<!-- Generator: Adobe Illustrator 16.0.0, SVG Export Plug-In . SVG Version: 6.00 Build 0)  -->
<!DOCTYPE svg PUBLIC "-//W3C//DTD SVG 1.1//EN" "http://www.w3.org/Graphics/SVG/1.1/DTD/svg11.dtd">
<svg version="1.1" id="Livello_1" xmlns="http://www.w3.org/2000/svg" xmlns:xlink="http://www.w3.org/1999/xlink" x="0px" y="0px"
	 width="395.718px" height="128.365px" viewBox="0 0 395.718 128.365" enable-background="new 0 0 395.718 128.365"
	 xml:space="preserve">
<g opacity="0.6">
	<g>
		<polygon fill="#9DA5B4" points="157.505,0.127 157.505,92.371 145.041,92.371 145.041,5.056 140.418,5.056 140.418,0.127 		"/>
	</g>
	<path fill="#9DA5B4" d="M223.507,35.888c-1.728-2.629-3.986-4.87-6.791-6.718c-2.799-1.86-6.023-3.266-9.664-4.261
		c-3.646-0.984-7.424-1.476-11.348-1.476c-3.92,0-7.7,0.491-11.346,1.476c-3.644,0.995-6.862,2.401-9.662,4.261
		c-2.805,1.848-5.045,4.089-6.729,6.718c-1.679,2.631-2.521,5.637-2.521,9.004V72.39c0,3.377,0.842,6.396,2.521,9.07
		c1.685,2.673,3.925,4.932,6.729,6.779c2.8,1.857,6.02,3.248,9.662,4.197c3.646,0.942,7.426,1.418,11.346,1.418
		c3.924,0,7.704-0.476,11.348-1.418c3.641-0.949,6.865-2.34,9.664-4.197c2.805-1.85,5.063-4.104,6.791-6.778
		c1.729-2.673,2.598-5.692,2.598-9.071V44.892C226.105,41.525,225.236,38.519,223.507,35.888z M213.638,72.024
		c0,4.685-1.547,8.613-4.627,11.775c-3.078,3.168-7.516,4.752-13.307,4.752c-5.693,0-10.084-1.586-13.164-4.752
		c-3.083-3.162-4.624-7.092-4.624-11.775v-26.77c0-2.291,0.396-4.455,1.192-6.475c0.789-2.01,1.935-3.758,3.432-5.234
		c1.494-1.484,3.359-2.639,5.602-3.453c2.242-0.824,4.764-1.24,7.563-1.24c2.893,0,5.438,0.416,7.634,1.24
		c2.195,0.814,4.062,1.969,5.604,3.453c1.539,1.477,2.707,3.225,3.502,5.234c0.791,2.02,1.188,4.184,1.188,6.475v26.77H213.638z"/>
	<g>
		<path fill="#9DA5B4" d="M263.533,30.458c-2.939,0.332-5.723,1.097-8.33,2.285c-2.619,1.195-4.787,2.918-6.52,5.182
			c-1.729,2.268-2.496,5.277-2.313,9.063v23.437c-0.187,3.782,0.584,6.801,2.313,9.061c1.732,2.268,3.898,3.973,6.52,5.117
			c2.607,1.149,5.391,1.914,8.33,2.281c2.939,0.375,5.533,0.563,7.775,0.563h16.527v3.088c-1.312,0.568-2.943,1.023-4.902,1.352
			c-1.961,0.33-4.672,0.49-8.123,0.49h-7.285c-1.869,0-4.02-0.076-6.445-0.248c-2.426-0.16-4.896-0.508-7.424-1.051
			c-2.52-0.525-4.998-1.289-7.424-2.28c-2.428-0.978-4.553-2.276-6.371-3.878c-1.818-1.604-3.293-3.557-4.412-5.863
			c-1.119-2.297-1.633-5.059-1.541-8.256V46.496c-0.092-3.207,0.422-5.957,1.541-8.264c1.119-2.301,2.594-4.259,4.412-5.863
			s3.943-2.867,6.371-3.817c2.426-0.94,4.904-1.681,7.424-2.214c2.523-0.543,4.998-0.891,7.424-1.051
			c2.428-0.17,4.576-0.247,6.445-0.247l7.285-0.128c3.451,0,6.162,0.188,8.123,0.56c1.959,0.366,3.594,0.84,4.902,1.42v3.078
			h-16.527C269.066,29.967,266.472,30.138,263.533,30.458z"/>
	</g>
	<path fill="#9DA5B4" d="M348.312,87.442V41.93c-0.098-5.175-1.916-9.331-5.463-12.456c-3.553-3.122-8.266-4.682-14.148-4.682
		h-14.988c-3.36,0-6.051,0.262-8.057,0.797c-2.006,0.535-3.664,1.095-4.971,1.66v2.965l29,0.127
		c1.859,0.084,3.359,0.764,4.479,2.027c1.119,1.281,1.68,2.621,1.68,4.012v11.473c-5.885-0.331-11.721-0.264-17.508,0.178
		c-5.791,0.459-10.996,1.543-15.621,3.275c-4.616,1.721-8.401,4.148-11.348,7.271c-2.939,3.131-4.453,7.203-4.549,12.217
		c-0.098,4.848,1.07,8.688,3.496,11.531c2.432,2.832,5.396,4.99,8.896,6.465c3.502,1.484,7.213,2.453,11.137,2.9
		c3.922,0.459,7.332,0.68,10.229,0.68h32.355v-4.928H348.312L348.312,87.442z M335.843,87.442H324.22
		c-2.244,0-4.814-0.188-7.707-0.563c-2.895-0.367-5.65-1.131-8.266-2.281c-2.613-1.146-4.785-2.852-6.513-5.119
		c-1.729-2.256-2.547-5.272-2.45-9.059c0.088-3.785,1.164-6.893,3.223-9.311c2.051-2.426,4.762-4.301,8.125-5.617
		c3.357-1.313,7.211-2.181,11.557-2.588c4.34-0.416,8.895-0.49,13.654-0.246V87.442L335.843,87.442z"/>
	<g>
		<path fill="#9DA5B4" d="M383.457,25.649c3.73-0.408,6.953-0.611,9.664-0.611v5.056c-2.238,0.161-4.578,0.535-7.004,1.103
			c-2.432,0.58-4.646,1.486-6.656,2.717c-2.006,1.238-3.657,2.918-4.973,5.057c-1.307,2.141-1.912,4.813-1.82,8.018v45.385h-12.326
			l-0.137-62.03h-6.725v-5.303h19.188v3.326C376.121,26.963,379.72,26.066,383.457,25.649z"/>
	</g>
	<g>
		<path fill="#9DA5B4" d="M58.294,50.992h61.381c-6.021-7-13.725-7-13.725-7h-0.933H48.756L58.294,50.992z"/>
		<path fill="#9DA5B4" d="M84.506,32.31c0,0,15.96,0.782,21.147,1.273c22.798,2.137,25.081,27.408,25.081,27.408H37.459
			l10.843,7.105l20.954,0.385c11.118,30.858,36.219,25.994,36.219,25.994l9.532-7.375c-28.758,3.901-37.654-18.107-37.654-18.107
			h61.645c0.26,0-0.708-11.699-0.877-12.666c-0.558-3.155-1.517-7.752-2.731-10.662c-3.353-8.002-8.859-14.375-16.016-18.277
			c-6.406-3.486-12.863-4.099-19.901-4.116c-8.641-0.017-17.287,0.01-25.933,0.01L84.506,32.31z"/>
	</g>
	<g>
		<polygon fill="#9DA5B4" points="42.532,56.904 54.097,56.904 55.033,54.23 45.436,47.187 		"/>
		<polygon fill="#9DA5B4" points="46.858,72.763 39.097,67.679 36.7,75.972 14.427,0 0,0 0,4.929 3.5,4.929 29.556,92.371 
			43.004,92.371 49.021,72.804 		"/>
		<polygon fill="#9DA5B4" points="59.492,39.311 71.439,0 59.112,0 47.709,39.311 		"/>
	</g>
</g>
<g opacity="0.6">
	<path fill="#9DA5B4" d="M6.599,103.623c0.275,1.399,0.55,2.8,0.85,4.198c0.2,1,0.4,1.976,0.6,2.949c0.3,1.574,0.55,3.149,0.8,4.725
		c0.275-1.625,0.525-3.249,0.85-4.898c0.25-1.225,0.525-2.449,0.8-3.675c0.225-1.124,0.475-2.198,0.7-3.299h5.299v17.721h-3.224
		l0.125-16.12L9.85,121.319H7.698l-3.424-15.871l0.1,15.896H1.2v-17.721H6.599L6.599,103.623z"/>
	<path fill="#9DA5B4" d="M40.572,118.944c0,1.3,0.075,1.75,0.35,2.398h-3.049l-0.175-1.449c-0.2,0.301-0.4,0.601-0.675,0.824
		c-0.325,0.325-1.149,0.9-2.399,0.9c-0.775,0-1.325-0.275-1.575-0.426c-1.625-0.899-1.574-2.924-1.574-3.398
		c0-1.35,0.275-1.975,0.649-2.5c0.9-1.273,2.5-1.725,3.849-2.35c0.675-0.301,1.025-0.5,1.275-0.75c0.3-0.351,0.325-0.875,0.325-1
		c0-0.975-0.6-1.35-1.5-1.35c-0.125,0-0.525,0-0.85,0.2c-0.75,0.375-0.75,1.226-0.75,1.924h-2.899
		c0.025-0.6,0.025-0.999,0.175-1.573c0.35-1.426,1.424-2.726,4.424-2.726c1.774,0,2.75,0.351,3.374,0.899
		c0.4,0.324,0.6,0.699,0.7,0.875c0.325,0.699,0.325,1.6,0.325,1.8V118.944L40.572,118.944z M37.573,114.319
		c-0.825,0.65-0.774,0.5-1.674,1.051c-0.5,0.275-1.35,0.773-1.35,2.225c0,0.95,0.3,1.35,0.7,1.551
		c0.225,0.125,0.425,0.148,0.675,0.148c0.15,0,0.525-0.023,0.875-0.25c0.675-0.449,0.75-1.225,0.774-1.975V114.319z"/>
	<path fill="#9DA5B4" d="M64.547,121.343h-3.099v-9.473c-0.025-0.551-0.075-1.148-0.625-1.449c-0.125-0.074-0.325-0.15-0.65-0.15
		c-0.175,0-0.5,0.025-0.825,0.275c-0.55,0.398-0.55,0.975-0.55,1.574v9.223H55.7v-13.297h2.924v1.375
		c0-0.025,0.175-0.375,0.35-0.574c0.35-0.5,1.1-1.176,2.575-1.176c0.649,0,1.274,0.125,1.799,0.5c1.15,0.825,1.2,2.25,1.2,3.499
		L64.547,121.343L64.547,121.343z"/>
	<path fill="#9DA5B4" d="M88.472,118.944c0,1.3,0.075,1.75,0.35,2.398h-3.049l-0.175-1.449c-0.2,0.301-0.4,0.601-0.675,0.824
		c-0.325,0.325-1.149,0.9-2.399,0.9c-0.775,0-1.325-0.275-1.575-0.426c-1.625-0.899-1.574-2.924-1.574-3.398
		c0-1.35,0.275-1.975,0.65-2.5c0.899-1.273,2.499-1.725,3.849-2.35c0.675-0.301,1.025-0.5,1.275-0.75c0.3-0.351,0.325-0.875,0.325-1
		c0-0.975-0.6-1.35-1.5-1.35c-0.125,0-0.525,0-0.85,0.2c-0.75,0.375-0.75,1.226-0.75,1.924h-2.899
		c0.025-0.6,0.025-0.999,0.175-1.573c0.35-1.426,1.424-2.726,4.424-2.726c1.774,0,2.749,0.351,3.374,0.899
		c0.4,0.324,0.6,0.699,0.7,0.875c0.325,0.699,0.325,1.6,0.325,1.8L88.472,118.944L88.472,118.944z M85.473,114.319
		c-0.825,0.65-0.774,0.5-1.674,1.051c-0.5,0.275-1.35,0.773-1.35,2.225c0,0.95,0.3,1.35,0.7,1.551
		c0.225,0.125,0.425,0.148,0.675,0.148c0.15,0,0.525-0.023,0.875-0.25c0.675-0.449,0.75-1.225,0.774-1.975V114.319z"/>
	<path fill="#9DA5B4" d="M109.548,108.046h2.899v13.247c0,0.524-0.025,1.074-0.075,1.601c-0.125,1.023-0.475,2.898-3.074,3.448
		c-0.524,0.101-0.975,0.149-1.5,0.149c-1.424,0-3.149-0.375-3.799-1.85c-0.2-0.426-0.25-0.75-0.275-1.625h2.999
		c0.025,0.176,0.05,0.325,0.1,0.5c0.25,0.699,0.95,0.75,1.175,0.75c0.15,0,0.65-0.024,0.975-0.399
		c0.45-0.524,0.475-1.351,0.475-2.675v-1.324c-0.325,0.523-0.95,1.625-2.625,1.625c-0.7,0-2.174-0.176-2.824-1.95
		c-0.525-1.399-0.5-3.449-0.5-4.897c0-0.75,0.025-1.5,0.05-2.274c0-0.375,0-0.75,0.05-1.125c0.05-0.649,0.25-3.55,3.099-3.55
		c1.25,0,1.975,0.601,2.299,0.949c0.225,0.227,0.275,0.326,0.55,0.801L109.548,108.046L109.548,108.046z M107.449,110.321
		c-0.5,0.275-0.625,0.9-0.625,1.023c-0.15,0.75-0.2,2.025-0.2,3.85c0,1.399,0.075,2.476,0.3,3c0.275,0.649,0.774,0.8,1.075,0.8
		c0.8,0,1.125-0.875,1.174-1c0.25-0.726,0.275-2.024,0.275-2.772c0-0.977,0.025-2.301-0.1-3.226c0-0.024-0.075-1.226-0.7-1.649
		c-0.175-0.101-0.425-0.15-0.625-0.15C107.749,110.196,107.548,110.271,107.449,110.321z"/>
	<path fill="#9DA5B4" d="M136.697,115.12l-6.124,0.025c0.025,0.625,0.025,2.1,0.125,2.698c0.05,0.399,0.175,1.524,1.5,1.524
		c1.475,0,1.475-1.524,1.5-2.574h2.949c0,0.45-0.025,0.898-0.075,1.324c-0.25,1.875-1.075,2.6-1.849,3
		c-1.025,0.55-2.125,0.55-2.5,0.55c-0.55,0-3,0.024-4.074-1.95c-0.575-1.074-0.725-2.549-0.725-5.099c0-0.949,0.025-1.874,0.125-2.8
		c0.15-1.549,0.55-2.273,1.05-2.823c0.6-0.675,1.625-1.325,3.624-1.325c2.149,0,3.149,0.725,3.699,1.575
		c0.775,1.198,0.775,2.849,0.775,4.174V115.12z M133.673,112.97v-0.425c0-0.25,0-0.476-0.025-0.726c0-0.324,0.05-1.85-1.449-1.85
		c-0.65,0-0.95,0.225-1.125,0.426c-0.5,0.523-0.525,1.225-0.525,2.573L133.673,112.97L133.673,112.97z"/>
	<path fill="#9DA5B4" d="M166.071,121.343h-3.099v-9.396c0-0.551-0.025-1.176-0.525-1.5c-0.225-0.149-0.425-0.2-0.675-0.2
		c-0.275,0-0.775,0.075-1.125,0.649c-0.3,0.476-0.3,1-0.3,1.551v8.896h-3.099v-8.973c-0.025-0.65,0.025-1.6-0.675-1.975
		c-0.125-0.051-0.3-0.15-0.6-0.125c-0.175,0-0.85,0.049-1.149,0.625c-0.25,0.424-0.225,0.975-0.225,1.998v8.448h-3.049v-13.297
		h2.899v1.55c0.325-0.725,0.95-1.925,2.924-1.925c0.25,0,1.375,0.024,2.074,0.75c0.225,0.226,0.35,0.425,0.625,0.976
		c0.1-0.176,0.275-0.449,0.375-0.601c0.325-0.399,1.149-1.125,2.549-1.125c0.275,0,1.175,0.05,1.899,0.524
		c1.125,0.726,1.175,1.925,1.175,3.125L166.071,121.343L166.071,121.343z"/>
	<path fill="#9DA5B4" d="M190.347,115.12l-6.124,0.025c0.025,0.625,0.025,2.1,0.125,2.698c0.05,0.399,0.175,1.524,1.5,1.524
		c1.475,0,1.475-1.524,1.499-2.574h2.949c0,0.45-0.024,0.898-0.074,1.324c-0.25,1.875-1.075,2.6-1.85,3
		c-1.025,0.55-2.125,0.55-2.5,0.55c-0.55,0-2.999,0.024-4.073-1.95c-0.575-1.074-0.726-2.549-0.726-5.099
		c0-0.949,0.025-1.874,0.125-2.8c0.15-1.549,0.55-2.273,1.05-2.823c0.601-0.675,1.625-1.325,3.624-1.325
		c2.149,0,3.149,0.725,3.699,1.575c0.775,1.198,0.775,2.849,0.775,4.174L190.347,115.12L190.347,115.12z M187.322,112.97v-0.425
		c0-0.25,0-0.476-0.025-0.726c0-0.324,0.05-1.85-1.449-1.85c-0.65,0-0.95,0.225-1.125,0.426c-0.5,0.523-0.524,1.225-0.524,2.573
		L187.322,112.97L187.322,112.97z"/>
	<path fill="#9DA5B4" d="M213.998,121.343h-3.1v-9.473c-0.025-0.551-0.076-1.148-0.625-1.449c-0.125-0.074-0.326-0.15-0.65-0.15
		c-0.176,0-0.5,0.025-0.824,0.275c-0.551,0.398-0.551,0.975-0.551,1.574v9.223h-3.1v-13.297h2.926v1.375
		c0-0.025,0.174-0.375,0.35-0.574c0.351-0.5,1.101-1.176,2.574-1.176c0.65,0,1.275,0.125,1.799,0.5
		c1.15,0.825,1.201,2.25,1.201,3.499V121.343z"/>
	<path fill="#9DA5B4" d="M232.324,104.422v3.624h1.35v2.225h-1.323v7.849c0,0-0.024,0.426,0.073,0.649
		c0.199,0.399,0.8,0.325,1.275,0.325l-0.025,2.399c-0.475,0-0.95,0.023-1.426,0c-0.125,0-1.574,0.05-2.272-0.5
		c-0.649-0.5-0.677-1.325-0.726-1.95v-8.772h-1.201v-2.225h1.226v-3.624H232.324z"/>
	<path fill="#9DA5B4" d="M273.472,109.021c-0.025-0.6-0.025-1.199-0.176-1.799c-0.324-1.275-1.324-1.375-1.799-1.375
		c-1.576,0-1.826,1.25-1.826,1.774c0,0.2,0.024,0.601,0.274,1.024c0.375,0.574,1,1,2.177,1.799c1.1,0.726,2.823,1.801,3.674,2.801
		c0.897,1.023,1.125,2.148,1.125,3.475c0,0.6-0.025,2.073-1.176,3.373c-0.226,0.275-0.9,0.95-1.898,1.301
		c-0.451,0.149-1.227,0.299-2.4,0.299c-2.15,0-3.148-0.625-3.875-1.398c-1.35-1.449-1.35-3.324-1.324-5.174h3.25
		c-0.024,1.5,0,2.425,0.324,3.05c0.5,0.874,1.449,0.949,1.75,0.949c0.75,0,2.025-0.3,2.025-2.149c0-1.475-0.801-1.925-1.875-2.674
		c-2.074-1.5-3.275-2.199-4.1-3.1c-0.476-0.5-1.175-1.475-1.175-3.174c0-3.274,2.101-4.799,5.197-4.799
		c0.625,0,2.851,0.049,4.125,1.848c0.823,1.201,0.851,2.551,0.875,3.976L273.472,109.021z"/>
	<path fill="#9DA5B4" d="M293.798,108.046l1.772,11.598l1.8-11.598h3.125l-3.226,14.372c-0.424,1.799-0.699,2.799-1.397,3.397
		c-0.576,0.525-1.427,0.576-2.177,0.602h-2.247l0.022-2.398h1.325c0.3,0,0.574,0,0.824-0.25c0.125-0.125,0.199-0.326,0.199-0.5
		c0-0.125-0.023-0.227-0.049-0.352l-3.174-14.871H293.798z"/>
	<path fill="#9DA5B4" d="M319.921,112.146c0-0.226,0-0.449-0.025-0.649c-0.025-0.399-0.125-1.574-1.475-1.574
		c-0.125,0-0.324,0-0.574,0.101c-0.25,0.1-0.725,0.399-0.725,1.1c0,0.125,0.024,0.4,0.174,0.65c0.274,0.574,1.149,1.074,1.649,1.398
		c0.427,0.273,0.851,0.575,1.3,0.875c0.399,0.273,0.825,0.551,1.2,0.874c0.5,0.427,1.425,1.3,1.425,3
		c0,0.226-0.025,0.824-0.226,1.449c-0.824,2.425-3.726,2.323-4.25,2.323c-2.049,0-3.022-0.674-3.574-1.475
		c-0.772-1.124-0.747-2.374-0.725-3.674h2.774c0,0.35,0,0.675,0.025,1.023c0.023,0.426,0,1.875,1.6,1.875
		c0.773,0,1.398-0.449,1.373-1.273c0-0.925-0.799-1.325-1.424-1.725c-0.35-0.25-0.725-0.477-1.074-0.727
		c-0.826-0.55-1.449-0.975-2.15-1.699c-0.424-0.475-1-1.175-1-2.648c0-0.773,0.177-1.301,0.302-1.6
		c0.476-1.125,1.573-2.101,4.101-2.101c0.25,0,0.924,0.024,1.623,0.226c0.551,0.149,1.801,0.625,2.225,2.174
		c0.201,0.65,0.201,1.426,0.201,2.076H319.921L319.921,112.146z"/>
	<path fill="#9DA5B4" d="M340.671,104.422v3.624h1.35v2.225h-1.324v7.849c0,0-0.025,0.426,0.074,0.649
		c0.201,0.399,0.801,0.325,1.275,0.325l-0.025,2.399c-0.475,0-0.949,0.023-1.424,0c-0.125,0-1.574,0.05-2.275-0.5
		c-0.648-0.5-0.674-1.325-0.725-1.95v-8.772h-1.199v-2.225h1.225v-3.624H340.671z"/>
	<path fill="#9DA5B4" d="M365.345,115.12l-6.123,0.025c0.025,0.625,0.025,2.1,0.125,2.698c0.049,0.399,0.174,1.524,1.5,1.524
		c1.475,0,1.475-1.524,1.498-2.574h2.949c0,0.45-0.023,0.898-0.074,1.324c-0.25,1.875-1.074,2.6-1.85,3
		c-1.025,0.55-2.125,0.55-2.5,0.55c-0.55,0-2.998,0.024-4.072-1.95c-0.576-1.074-0.728-2.549-0.728-5.099
		c0-0.949,0.025-1.874,0.125-2.8c0.15-1.549,0.552-2.273,1.052-2.823c0.6-0.675,1.625-1.325,3.623-1.325
		c2.149,0,3.149,0.725,3.698,1.575c0.774,1.198,0.774,2.849,0.774,4.174v1.7H365.345z M362.322,112.97v-0.425
		c0-0.25,0-0.476-0.025-0.726c0-0.324,0.05-1.85-1.448-1.85c-0.649,0-0.951,0.225-1.125,0.426c-0.5,0.523-0.524,1.225-0.524,2.573
		L362.322,112.97L362.322,112.97z"/>
	<path fill="#9DA5B4" d="M394.718,121.343h-3.098v-9.396c0-0.551-0.025-1.176-0.525-1.5c-0.225-0.149-0.426-0.2-0.676-0.2
		c-0.273,0-0.773,0.075-1.123,0.649c-0.301,0.476-0.301,1-0.301,1.551v8.896h-3.101v-8.973c-0.024-0.65,0.024-1.6-0.674-1.975
		c-0.125-0.051-0.302-0.15-0.601-0.125c-0.176,0-0.852,0.049-1.149,0.625c-0.25,0.424-0.226,0.975-0.226,1.998v8.448h-3.049v-13.297
		h2.898v1.55c0.324-0.725,0.949-1.925,2.924-1.925c0.25,0,1.375,0.024,2.074,0.75c0.225,0.226,0.35,0.425,0.625,0.976
		c0.1-0.176,0.275-0.449,0.375-0.601c0.326-0.399,1.15-1.125,2.549-1.125c0.275,0,1.176,0.05,1.9,0.524
		c1.125,0.726,1.174,1.925,1.174,3.125v10.023H394.718z"/>
</g>
</svg>
